<svg xmlns="http://www.w3.org/2000/svg" width="240" height="60" viewBox="0 0 240 60">
  <defs>
    <linearGradient id="logoGradient" x1="0%" y1="0%" x2="100%" y2="0%">
      <stop offset="0%" style="stop-color:#001EA7" />
      <stop offset="100%" style="stop-color:#2351DC" />
    </linearGradient>
  </defs>
  
  <!-- Logo Container -->
  <g>
    <!-- Icon -->
    <g transform="translate(10, 10) scale(0.04)">
      <path fill="url(#logoGradient)" d="M94.59,46.06C89.98,41.86 83.6,40.98 77.38,41.67C72.6,42.19 68.11,44.34 65.21,47.59C61.96,51.27 61.25,56.12 62.81,60.44C64.35,64.67 67.86,67.97 72.04,69.58C75.65,70.97 79.61,71.06 83.42,69.97C86.85,68.99 89.88,66.95 91.97,63.98C94.47,60.41 95.4,56.02 94.84,51.83C94.48,49.04 94.73,47.88 94.59,46.06Z"/>
      <path fill="url(#logoGradient)" d="M149.22,0C137.56,0.71 130.08,12.28 125.58,21.97C121.52,30.76 119.69,40.36 116.06,49.25C112.96,57 107.78,65.86 100.37,68.81C93.63,71.49 85.28,68.25 82.3,61.74C80.21,57.12 81.14,51.8 82.87,47.17C84.35,43.26 86.43,39.56 88.94,36.23C92.33,31.68 96.56,26.85 97.37,21.06C98.19,15.28 95.65,9.09 91.08,5.52C86.73,2.11 81.06,1 75.9,2.04C70.75,3.08 66.27,6.23 63.19,10.51C59.25,16.05 57.98,23.11 56.9,29.81C55.76,36.78 54.89,43.81 53.74,50.78C52.67,57.18 51.27,63.74 47.87,69.39C44.6,74.85 39.02,78.99 32.71,78.77C28.21,78.61 24.27,76.15 21.19,72.93C18.18,69.77 16.12,65.76 14.68,61.65C12.58,55.55 11.84,49.05 11.45,42.61C11.09,36.67 11.02,30.61 12.24,24.77C13.49,18.76 16.25,12.8 21.12,8.98C23.46,7.14 26.24,5.97 29.06,5.27C34.74,3.86 40.86,4.47 46.02,7.25C48.84,8.76 51.34,10.92 53.18,13.52C56.96,18.83 57.87,25.86 56.33,32.13C54.86,38.14 51.29,43.42 48.35,48.88C45.19,54.75 42.02,60.63 40.51,67.09C39.14,72.9 39.26,79.22 42.03,84.63C44.3,89.09 48.29,92.5 53.02,93.96C61.62,96.54 71.53,93.48 77.7,87C83.71,80.68 86.2,71.61 89.28,63.41C92.45,54.99 96.79,47.02 102.91,40.89C106.32,37.47 110.35,34.68 114.86,33.15C119.45,31.6 124.44,31.49 129.11,32.67C134.3,33.98 138.9,37.25 141.38,42.09C144.38,47.9 143.61,54.94 139.96,60.17C135.55,66.48 127.6,69.51 119.99,69.89C112.38,70.28 104.99,67.96 97.58,66.05C91.11,64.41 84.38,63.15 77.67,64.58C70.96,66.01 64.9,70.39 61.98,76.71C59.14,82.85 59.84,90.32 63.35,95.94C66.87,101.57 73.1,105.09 79.76,106.44C87.33,107.96 95.33,106.7 102.18,103.25C109.02,99.8 114.61,94.24 118.16,87.59C121.32,81.67 122.83,74.96 125.27,68.68C127.74,62.33 130.94,56.23 136.07,52.04C139.36,49.37 143.38,47.54 147.48,47.58C151.89,47.63 156.01,49.83 159.03,52.9C164.08,58.04 165.5,65.85 164.05,72.67C162.61,79.49 158.96,85.59 154.78,90.96C143.57,105.2 127.37,114.97 110.14,118.44C96.42,121.2 81.72,119.5 68.62,114.35C64.1,112.52 59.52,109.88 56.63,106.02C53.79,102.21 52.71,97.14 53.91,92.58C55.08,88.11 58.63,84.58 62.86,82.87C69.87,80.18 77.94,82.38 84.36,86.08C91.08,89.95 96.57,95.56 104.04,97.96C110.45,100.04 117.61,98.65 122.65,94.19C127.94,89.51 129.95,81.48 127.69,74.74C126.16,70.17 122.6,66.49 118.17,64.49C111.67,61.54 103.83,62.45 97.01,65.32C90.97,67.87 86.3,72.9 81.05,76.84C74.11,81.91 66.02,85.46 57.55,87.5C49.73,89.38 41.07,89.91 33.48,87.08C28.19,85.08 23.48,81.32 20.29,76.57C15.7,69.78 14.63,61.1 15.97,53.03C17.31,44.96 21.05,37.45 25.32,30.62C28.33,25.82 31.63,21.16 35.96,17.6C40.22,14.1 45.39,11.78 50.73,10.6C56.66,9.28 62.86,9.53 68.71,11.16C74.32,12.72 79.52,15.69 83.33,19.99C87.11,24.25 89.01,29.81 89.11,35.38C89.21,40.99 87.42,46.47 85.29,51.66C83.15,56.86 80.8,62.31 81.2,68.01C81.48,71.95 83.62,75.59 86.95,77.75C93.15,81.62 101.3,79.27 107.48,75.36C113.31,71.66 117.58,65.96 119.79,59.51C121.14,55.45 121.84,51.17 122.49,46.92C123.73,38.96 125.1,30.97 127.83,23.42C129.99,17.52 133.16,11.86 138.19,8.03C142.52,4.8 148.14,3.03 153.37,4.13C158.6,5.22 163.13,9.04 164.78,14.13C166.43,19.22 165.18,25.02 161.84,29.11C158.52,33.16 153.28,35.36 148.12,35.19C144.46,35.07 140.86,33.71 138.02,31.37C132.23,26.76 130.06,18.6 131.85,11.57C132.77,7.88 134.71,4.51 137.29,1.71C140.61,-1.89 145.08,0.28 149.22,0Z"/>
    </g>
    
    <!-- Text -->
    <text x="55" y="35" font-family="Open Sans, sans-serif" font-size="24" font-weight="bold" fill="#001EA7">Step</text>
    <text x="117" y="35" font-family="Open Sans, sans-serif" font-size="24" font-weight="bold" fill="#2351DC">Together</text>
    
    <!-- Tagline -->
    <text x="60" y="50" font-family="Open Sans, sans-serif" font-size="12" fill="#24BE00">Journey across Brazil</text>
  </g>
</svg>