<?xml version="1.0" encoding="UTF-8"?>
<svg xmlns="http://www.w3.org/2000/svg" viewBox="0 0 800 900" width="800" height="900">
  <!-- Brazil outline with accurate proportions -->
  <path d="M205,95 C170,120 150,170 160,220 C165,245 180,270 210,285 C250,310 300,330 348,330 
           C380,330 410,320 435,300 C470,270 480,240 482,200 
           C485,150 470,110 440,85 C410,60 360,45 310,60 C260,75 230,90 205,95 Z
           M348,330 C345,340 340,350 338,365 C335,385 340,410 355,425
           C370,440 400,445 430,440 C455,435 474,425 482,405
           C490,385 485,365 470,345 C455,325 430,310 400,305
           C370,300 355,305 348,330 Z
           M338,365 C330,375 320,385 305,400 C285,420 275,445 270,475
           C265,505 270,535 280,560 C290,585 305,600 335,615
           C365,630 400,640 435,635 C470,630 495,610 510,585
           C525,560 530,530 520,500 C510,470 485,445 455,430
           C425,415 400,410 370,412 C340,415 338,365 338,365 Z
           M270,475 C255,485 235,490 210,495 C185,500 160,505 140,520
           C120,535 110,555 105,580 C100,605 105,630 115,655
           C125,680 140,700 165,720 C190,740 225,755 265,760
           C305,765 345,750 370,730 C395,710 400,680 395,650
           C390,620 375,595 350,580 C325,565 300,560 280,560 Z
           M105,580 C90,590 70,595 50,610 C30,625 20,645 15,670
           C10,695 15,720 30,745 C45,770 70,790 100,800
           C130,810 160,805 185,790 C210,775 220,755 225,730
           C230,705 225,675 210,650 C195,625 180,610 165,600
           C150,590 130,585 115,655 Z"
        fill="#3E884F" stroke="#008000" stroke-width="2" />
        
  <!-- Major coastal cities with geographically accurate positions -->
  
  <!-- Oiapoque (Northern tip) -->
  <circle cx="270" cy="285" r="8" fill="#0055FF" />
  <text x="287" y="285" font-size="16" fill="#000" font-weight="bold" text-anchor="start">Oiapoque</text>
  
  <!-- Belém -->
  <circle cx="275" cy="350" r="8" fill="#0055FF" />
  <text x="292" y="350" font-size="16" fill="#000" font-weight="bold" text-anchor="start">Belém</text>
  
  <!-- São Luís -->
  <circle cx="320" cy="365" r="8" fill="#0055FF" />
  <text x="337" y="365" font-size="16" fill="#000" font-weight="bold" text-anchor="start">São Luís</text>
  
  <!-- Fortaleza -->
  <circle cx="383" cy="369" r="8" fill="#0055FF" />
  <text x="400" y="369" font-size="16" fill="#000" font-weight="bold" text-anchor="start">Fortaleza</text>
  
  <!-- Natal -->
  <circle cx="428" cy="410" r="8" fill="#0055FF" />
  <text x="445" y="410" font-size="16" fill="#000" font-weight="bold" text-anchor="start">Natal</text>
  
  <!-- Recife -->
  <circle cx="440" cy="445" r="8" fill="#0055FF" />
  <text x="457" y="445" font-size="16" fill="#000" font-weight="bold" text-anchor="start">Recife</text>
  
  <!-- Salvador -->
  <circle cx="410" cy="520" r="8" fill="#0055FF" />
  <text x="427" y="520" font-size="16" fill="#000" font-weight="bold" text-anchor="start">Salvador</text>
  
  <!-- Rio de Janeiro -->
  <circle cx="345" cy="640" r="8" fill="#0055FF" />
  <text x="362" y="640" font-size="16" fill="#000" font-weight="bold" text-anchor="start">Rio de Janeiro</text>
  
  <!-- São Paulo -->
  <circle cx="310" cy="655" r="8" fill="#0055FF" />
  <text x="327" y="655" font-size="16" fill="#000" font-weight="bold" text-anchor="start">São Paulo</text>
  
  <!-- Florianópolis -->
  <circle cx="285" cy="695" r="8" fill="#0055FF" />
  <text x="302" y="695" font-size="16" fill="#000" font-weight="bold" text-anchor="start">Florianópolis</text>
  
  <!-- Porto Alegre -->
  <circle cx="255" cy="730" r="8" fill="#0055FF" />
  <text x="272" y="730" font-size="16" fill="#000" font-weight="bold" text-anchor="start">Porto Alegre</text>
  
  <!-- Chuí (Southern tip) -->
  <circle cx="225" cy="790" r="8" fill="#0055FF" />
  <text x="242" y="790" font-size="16" fill="#000" font-weight="bold" text-anchor="start">Chuí</text>
  
  <!-- Route path along the Atlantic coast -->
  <path d="M270,285 C271,305 273,325 275,350 C280,360 290,363 320,365 
           C340,367 365,368 383,369 C400,380 415,395 428,410
           C435,425 438,435 440,445 C435,470 425,495 410,520
           C390,555 370,595 345,640 C330,645 320,650 310,655
           C300,670 290,683 285,695 C270,710 260,720 255,730
           C245,750 235,770 225,790"
        fill="none" stroke="#FF5500" stroke-width="3" stroke-dasharray="8 4" />
</svg>